<?xml version="1.0" encoding="UTF-8"?>
<svg id="Layer_1" data-name="Layer 1" xmlns="http://www.w3.org/2000/svg" viewBox="0 0 1000 300">
  <defs>
    <style>
      .cls-1 {
        opacity: .3;
      }

      .cls-1, .cls-2, .cls-3 {
        fill: #8be8e8;
      }

      .cls-1, .cls-2, .cls-3, .cls-4, .cls-5 {
        stroke-width: 0px;
      }

      .cls-3 {
        opacity: .7;
      }

      .cls-4 {
        fill: #fff;
      }

      .cls-5 {
        fill: #9acf65;
      }
    </style>
  </defs>
  <g>
    <path class="cls-4" d="M328.6,126.6c-.96-1.85-3.62-2.78-7.98-2.78s-7.12.93-8.29,2.78c-3.91,4.94-11.71,15.14-23.38,30.59l-23.38-30.69-.62-.62c-.41-.48-1.29-.94-2.63-1.39-1.34-.45-2.93-.67-4.79-.67-4.33,0-7,.89-8.03,2.68-.55,1.03-.88,1.94-.98,2.73-.1.79-.15,1.97-.15,3.55v57.15c0,1.65.05,2.88.15,3.71s.43,1.72.98,2.68c1.03,1.85,3.64,2.78,7.83,2.78s7-.93,8.03-2.78c.55-.96.88-1.84.98-2.63.1-.79.15-1.97.15-3.55v-34.7c.34.41,2.54,3.42,6.59,9.01,4.05,5.6,6.76,9.25,8.14,10.97l.82,1.13c.55.69,1.46,1.39,2.73,2.11,1.27.72,2.68,1.08,4.22,1.08s2.99-.39,4.32-1.18c1.34-.79,2.18-1.41,2.52-1.85.34-.44.96-1.25,1.85-2.42.89-1.17,2.99-4.07,6.28-8.7,3.29-4.63,5.8-8.01,7.52-10.14v34.5c0,2.4.17,4.19.51,5.36.35.89.82,1.58,1.44,2.06.62.48,1.51.89,2.68,1.24,1.17.34,2.75.51,4.74.51s3.64-.21,4.94-.62c2.61-.82,3.92-3.6,3.92-8.34v-57.15c0-1.58-.05-2.78-.16-3.6-.1-.82-.43-1.75-.98-2.78Z"/>
    <path class="cls-4" d="M374.32,122.79c-4.74,0-9.34.96-13.8,2.88-4.47,1.92-8.41,4.57-11.84,7.93-3.43,3.37-6.18,7.54-8.24,12.51-2.06,4.98-3.09,10.32-3.09,16.01,0,10.44,3.65,19.43,10.96,26.98,7.31,7.55,16.19,11.33,26.62,11.33s19.22-3.83,26.36-11.48c7.14-7.65,10.71-16.92,10.71-27.8s-3.74-20-11.22-27.34c-7.48-7.35-16.31-11.02-26.47-11.02ZM387.92,176.65c-3.91,3.71-8.31,5.56-13.18,5.56s-9.29-1.9-13.23-5.71c-3.95-3.81-5.92-8.77-5.92-14.88s1.96-11.07,5.87-14.88c3.91-3.81,8.3-5.72,13.18-5.72s9.28,1.89,13.23,5.66c3.95,3.78,5.92,8.79,5.92,15.04s-1.96,11.22-5.87,14.93Z"/>
    <path class="cls-4" d="M461.94,157.39c-2.61-1.24-5.46-2.28-8.55-3.14-3.09-.86-5.94-1.49-8.55-1.9s-4.79-1.2-6.54-2.37c-1.75-1.17-2.62-2.69-2.62-4.58s.74-3.36,2.21-4.43c1.47-1.06,3.33-1.6,5.56-1.6s4.07.45,5.51,1.34c.48.34,1.01.79,1.6,1.34.58.55.98.89,1.18,1.03,2.13,1.37,3.91,2.06,5.36,2.06,2.48,0,4.88-1.72,7.21-5.15,1.65-2.4,2.47-4.29,2.47-5.66s-1.06-3.05-3.19-5.05l-2.58-1.96c-1.3-1.1-3.66-2.18-7.05-3.24-3.4-1.06-7.16-1.6-11.28-1.6-7.76,0-13.89,2.25-18.38,6.75-4.5,4.5-6.74,9.77-6.74,15.81,0,4.39.88,8.15,2.63,11.28,1.75,3.13,3.93,5.41,6.54,6.85s5.42,2.69,8.44,3.76c3.02,1.07,5.83,1.84,8.44,2.32,2.61.48,4.79,1.25,6.54,2.32,1.75,1.07,2.63,2.39,2.63,3.97,0,5.22-3.19,7.83-9.58,7.83-1.51,0-3.16-.53-4.94-1.6-1.79-1.06-3.16-2.18-4.12-3.35-3.43-3.43-6.11-5.15-8.03-5.15s-3.74.82-5.46,2.47c-2.95,2.88-4.43,5.2-4.43,6.95s.89,3.73,2.67,5.92l.93,1.13c1.44,2.06,3.98,4.19,7.62,6.38,1.78,1.17,4.12,2.15,7,2.94s5.94,1.18,9.17,1.18c6.31,0,12.26-1.82,17.82-5.46,2.88-1.85,5.21-4.48,7-7.88,1.79-3.4,2.68-7.33,2.68-11.79s-.88-8.22-2.63-11.28c-1.75-3.05-3.93-5.2-6.54-6.44Z"/>
    <path class="cls-4" d="M521.29,157.39c-2.61-1.24-5.46-2.28-8.55-3.14s-5.94-1.49-8.55-1.9c-2.61-.41-4.79-1.2-6.54-2.37s-2.63-2.69-2.63-4.58.74-3.36,2.21-4.43c1.48-1.06,3.33-1.6,5.56-1.6s4.07.45,5.51,1.34c.48.34,1.01.79,1.6,1.34.58.55.98.89,1.18,1.03,2.13,1.37,3.91,2.06,5.36,2.06,2.47,0,4.87-1.72,7.21-5.15,1.65-2.4,2.47-4.29,2.47-5.66s-1.06-3.05-3.19-5.05l-2.58-1.96c-1.3-1.1-3.66-2.18-7.05-3.24-3.4-1.06-7.16-1.6-11.28-1.6-7.76,0-13.89,2.25-18.38,6.75-4.5,4.5-6.75,9.77-6.75,15.81,0,4.39.88,8.15,2.63,11.28,1.75,3.13,3.93,5.41,6.54,6.85,2.61,1.44,5.42,2.69,8.44,3.76,3.02,1.07,5.83,1.84,8.44,2.32,2.61.48,4.79,1.25,6.54,2.32,1.75,1.07,2.63,2.39,2.63,3.97,0,5.22-3.19,7.83-9.58,7.83-1.51,0-3.16-.53-4.94-1.6-1.79-1.06-3.16-2.18-4.12-3.35-3.43-3.43-6.11-5.15-8.03-5.15s-3.74.82-5.46,2.47c-2.95,2.88-4.43,5.2-4.43,6.95s.89,3.73,2.68,5.92l.93,1.13c1.44,2.06,3.98,4.19,7.62,6.38,1.79,1.17,4.12,2.15,7,2.94,2.89.79,5.94,1.18,9.17,1.18,6.32,0,12.26-1.82,17.82-5.46,2.88-1.85,5.22-4.48,7-7.88,1.79-3.4,2.68-7.33,2.68-11.79s-.88-8.22-2.63-11.28c-1.75-3.05-3.93-5.2-6.54-6.44Z"/>
    <g>
      <path class="cls-4" d="M591.01,184.73c-1.03-.51-2.68-.77-4.94-.77h-28.01v-51.08c0-2.4-.17-4.19-.51-5.36-.9-2.54-3.74-3.81-8.55-3.81-4.39,0-7.07.93-8.03,2.78-.55,1.03-.88,1.94-.98,2.73-.1.79-.16,1.97-.16,3.55v57.26c0,2.4.21,4.16.62,5.25.82,2.61,3.64,3.91,8.44,3.91h37.07c2.27,0,4.05-.34,5.36-1.03.82-.41,1.41-1.17,1.75-2.27.34-1.1.52-2.56.52-4.38s-.17-3.28-.52-4.38c-.35-1.1-1.03-1.9-2.06-2.42Z"/>
      <path class="cls-4" d="M648.68,141.94c2.4,0,4.19-.21,5.36-.62,2.54-.82,3.81-3.64,3.81-8.44,0-4.39-.93-7.07-2.78-8.03-1.03-.55-1.94-.88-2.73-.98s-1.97-.15-3.55-.15h-40.57c-3.64,0-6.11.64-7.41,1.9-1.31,1.27-1.96,3.66-1.96,7.16v57.26c0,2.4.21,4.16.62,5.25.82,2.61,3.64,3.91,8.44,3.91h40.78c2.4,0,4.19-.21,5.36-.62,2.54-.82,3.81-3.64,3.81-8.45,0-4.39-.93-7.07-2.78-8.03-1.03-.55-1.94-.88-2.73-.98s-1.97-.15-3.55-.15h-31.72v-10.4h20.18c2.4,0,4.19-.21,5.36-.62,2.61-.82,3.91-3.64,3.91-8.44,0-4.39-.93-7.07-2.78-8.03-1.03-.55-1.94-.88-2.73-.98s-1.97-.15-3.55-.15h-20.39v-10.4h31.61Z"/>
      <path class="cls-4" d="M733.55,126.8c-.35-1.1-1.03-1.91-2.06-2.42s-2.64-.77-4.84-.77h-57.26c-2.27,0-4.02.31-5.25.93-.82.41-1.41,1.15-1.75,2.21-.35,1.07-.51,2.49-.51,4.27s.17,3.23.51,4.32c.34,1.1,1.03,1.9,2.06,2.42,1.03.51,2.64.77,4.84.77h19.77v51.7c0,1.58.05,2.76.15,3.55.1.79.41,1.68.93,2.68.52,1,1.41,1.7,2.68,2.11,1.27.41,2.97.62,5.1.62s3.84-.21,5.15-.62,2.22-1.12,2.73-2.11c.52-.99.82-1.87.93-2.63.1-.75.15-1.92.15-3.5v-51.8h19.67c2.26,0,4.02-.31,5.25-.93.82-.41,1.41-1.15,1.75-2.21.34-1.06.52-2.49.52-4.27s-.17-3.23-.52-4.32Z"/>
    </g>
  </g>
  <path class="cls-5" d="M178.52,174.95l-67.42-67.42c-2.55-2.55-6.76-2.3-8.97.54-5.85,7.54-10.27,15.82-13.27,24.49-.75,2.16-.18,4.56,1.44,6.18l38.43,38.43c13.59,13.59,35.17,14.32,49.61,2.19,1.34-1.13,1.41-3.17.17-4.4Z"/>
  <path class="cls-3" d="M178.52,174.95l-67.42-67.42c-2.55-2.55-6.76-2.3-8.97.54-5.85,7.54-10.27,15.82-13.27,24.49-.75,2.16-.18,4.56,1.44,6.18l38.43,38.43c13.59,13.59,35.17,14.32,49.61,2.19,1.34-1.13,1.41-3.17.17-4.4Z"/>
  <g>
    <path class="cls-2" d="M89.75,149.88c-1.78-1.78-4.84-.71-5.1,1.79-2.61,24.89,5.6,50.71,24.68,69.79.33.33.67.63,1,.95,13.61,13.12,34.83,13.71,49.11,1.73,1.34-1.12,1.41-3.17.17-4.4l-69.85-69.85Z"/>
    <path class="cls-5" d="M197.45,130.17l-49.29-49.29c-1.62-1.62-4.01-2.19-6.18-1.44-8.67,2.99-16.95,7.42-24.49,13.27-2.84,2.21-3.09,6.42-.54,8.97l30.71,30.71c13.59,13.59,35.17,14.32,49.61,2.19,1.34-1.13,1.41-3.17.17-4.4Z"/>
    <path class="cls-1" d="M197.45,130.17l-49.29-49.29c-1.62-1.62-4.01-2.19-6.18-1.44-8.67,2.99-16.95,7.42-24.49,13.27-2.84,2.21-3.09,6.42-.54,8.97l30.71,30.71c13.59,13.59,35.17,14.32,49.61,2.19,1.34-1.13,1.41-3.17.17-4.4Z"/>
    <circle class="cls-5" cx="190.66" cy="85.68" r="18.39" transform="translate(-4.74 159.91) rotate(-45)"/>
  </g>
</svg>