<?xml version="1.0" encoding="UTF-8"?>
<svg id="Layer_1" data-name="Layer 1" xmlns="http://www.w3.org/2000/svg" viewBox="0 0 800 800">
  <defs>
    <style>
      .cls-1 {
        opacity: .3;
      }

      .cls-1, .cls-2, .cls-3 {
        fill: #8be8e8;
      }

      .cls-1, .cls-2, .cls-3, .cls-4 {
        stroke-width: 0px;
      }

      .cls-3 {
        opacity: .7;
      }

      .cls-4 {
        fill: #9acf65;
      }
    </style>
  </defs>
  <path class="cls-4" d="M506.39,483.18l-224.75-224.75c-8.49-8.49-22.53-7.68-29.89,1.8-19.5,25.12-34.25,52.74-44.23,81.63-2.49,7.2-.59,15.2,4.8,20.58l128.11,128.11c45.3,45.3,117.23,47.73,165.38,7.3,4.47-3.75,4.7-10.56.58-14.68Z"/>
  <path class="cls-3" d="M506.39,483.18l-224.75-224.75c-8.49-8.49-22.53-7.68-29.89,1.8-19.5,25.12-34.25,52.74-44.23,81.63-2.49,7.2-.59,15.2,4.8,20.58l128.11,128.11c45.3,45.3,117.23,47.73,165.38,7.3,4.47-3.75,4.7-10.56.58-14.68Z"/>
  <g>
    <path class="cls-2" d="M210.47,399.61c-5.93-5.93-16.14-2.36-17.02,5.98-8.71,82.98,18.68,169.03,82.28,232.63,1.09,1.09,2.22,2.09,3.32,3.16,45.38,43.73,116.12,45.69,163.69,5.75,4.46-3.75,4.69-10.55.57-14.67l-232.84-232.84Z"/>
    <path class="cls-4" d="M569.47,333.9l-164.3-164.3c-5.39-5.39-13.38-7.29-20.58-4.8-28.9,9.98-56.51,24.73-81.63,44.23-9.48,7.36-10.29,21.4-1.8,29.89l102.36,102.36c45.3,45.3,117.23,47.73,165.38,7.3,4.47-3.75,4.7-10.56.58-14.68Z"/>
    <path class="cls-1" d="M569.47,333.9l-164.3-164.3c-5.39-5.39-13.38-7.29-20.58-4.8-28.9,9.98-56.51,24.73-81.63,44.23-9.48,7.36-10.29,21.4-1.8,29.89l102.36,102.36c45.3,45.3,117.23,47.73,165.38,7.3,4.47-3.75,4.7-10.56.58-14.68Z"/>
    <circle class="cls-4" cx="546.84" cy="185.59" r="61.29" transform="translate(28.93 441.03) rotate(-45)"/>
  </g>
</svg>