<?xml version="1.0" encoding="UTF-8"?>
<svg xmlns="http://www.w3.org/2000/svg" xmlns:xlink="http://www.w3.org/1999/xlink" version="1.1" viewBox="0 0 250 84">
  <defs>
    <style>
      .cls-1 {
        fill: url(#linear-gradient);
      }

      .cls-2 {
        fill: #712f49;
      }

      .cls-3 {
        fill: #601531;
      }

      .cls-4 {
        fill: #fff;
      }
    </style>
    <linearGradient id="linear-gradient" x1="1939.1" y1="-793.6" x2="2209.8" y2="-625.8" gradientTransform="translate(-573.2 -200.5) scale(.3 -.3)" gradientUnits="userSpaceOnUse">
      <stop offset="0" stop-color="#601531"/>
      <stop offset="1" stop-color="#cb715d"/>
    </linearGradient>
  </defs>
  <!-- Generator: Adobe Illustrator 28.7.4, SVG Export Plug-In . SVG Version: 1.2.0 Build 166)  -->
  <g>
    <g id="Layer_1">
      <path class="cls-1" d="M83.6,42c0,23.1-18.7,41.8-41.8,41.8S0,65.1,0,42C0,18.9,18.7.2,41.8.2s41.8,18.7,41.8,41.8Z"/>
      <path class="cls-4" d="M25.9,12.6s.8-.4,1.8-2.5c0,0,1.3-2.6,4.6-2.9.7,0,2.4-.1,6.5,0-.3.3-3,2.1-4.3,3.8-.3.4-1.8,2-4,2-2.3-.3-2.9-.5-4.6-.5Z"/>
      <path class="cls-4" d="M19.3,17.5s1.7-.5,4.4.2c0,0,1.2,0,1.4,0s4.6-2.8,5.6-3c0,0,.3-.1-1.5-.4-.7-.1-2.8-1.1-5.1-.3,0-.3,0-.5.1-.6s1.4-.3,2-2.8c.2-.4,1.2-2.5,1.8-3.1-.2,0-5.4,1.9-6.9,4-.1.3-.5.8-.8,3.4-.2.5,0,1.5-.9,2.6Z"/>
      <path class="cls-4" d="M19.8,11.7s-5.1,4-5.5,5c0,0-1.1,1.7-.6,4.3,0,.9.2,2.5.2,2.9.7-.3,2.9-.9,4.6-1.2,0,0,1.6-.3,3-2.2.4-.4,2.1-2,2.6-2.2,0,0-5-1-6.4.8-.2.1-.3,0-.3,0,0,0,.9-.7,1.3-2,0,0,.2-1.4.3-2.7.3-1,.9-2.5.8-2.6Z"/>
      <path class="cls-4" d="M10.3,31.6s-.4-2.3-1.6-4.5c0-.4-.6-1.9.8-3.8.6-1.1,3.2-4.7,3.2-4.7,0,0,0,2.6,0,3.4.2.8.4,2.5-.5,4.4.1.1.4,0,.4,0,0,0,.4-1.7,2-2.1.6-.1,2.8-.5,4.3-1.4,0,.3-2.2,2.8-2.8,4.2-.2.4-.8,2.3-3.1,2.7-.5.3-2.2.7-2.8,1.6Z"/>
      <path class="cls-4" d="M9.5,33.2s.2-2.1-.5-2.8c-.2-.5-1.2-2.3-1.1-3.7-.2,0-2.3,5.3-2.4,7.2,0,.7,0,1.8,1.5,3.1.5.5,1.8,2,1.8,2.7,0,0,.3,0,.3,0,0,0,.5-1.3,2.5-2.5.6-.4,1.3-.7,1.8-2.7.1-.7.4-2.5,1.4-4.5-.1,0-1.9.9-2.7,1.4-.3,0-1.8.7-2.2,1.6-.2,0-.4.2-.5,0Z"/>
      <path class="cls-4" d="M12.8,37.5s-1,1.5-2.3,2.2c-.2.2-1.3,1.2-1.5,2.3-.1,0-.3,0-.3,0,0,0,0-1.3-.8-2-.4-.4-1.8-2.3-2-2.6-.3-.3-.4-.8-.7-1.4,0,0-.7,5.5-.4,7.2,0,0,.3,1.5,1.9,2.7.5.4,1.8,1.3,2.6,2.4,0,0,.7-1.7,1.7-2.6.3-.4,1-1.2,1.3-1.7.2-.4.6-.2.5-6.5Z"/>
      <path class="cls-4" d="M12.4,56.7s-2.9-1.9-4-2c-.4-.2-1.8-.6-2.5-4.3-.4-2.1-.9-5.3-.9-5.3,0,0,0-.1.2,0s.5,1.4,1.9,2.5c.5.3,2.2,1.5,2.7,2.9.1,0,.3,0,.3,0,0,0-.2-1.4,1-2.9.4-.6,1.3-1.2,1.7-2.6.1,0,.2,0,.2,0s0,2.2.6,3.4c.1.5,1,2.1.3,4-.2.7-.9,2-1,2.5-.1.4-.4,1.1-.4,1.8Z"/>
      <path class="cls-4" d="M17.1,63.2s-.8-.6-3.9-.6c-.4,0-2.6-.4-3.3-2.6-.4-.6-1.3-2.5-2.6-5.3,0,0,.2,0,.2,0,0,0,.8,1.2,2.3,1.6.7.2,2.9.8,3.4,1.9.1,0,.2-.2.2-.2,0,0-.5-1.8.6-3.6.1-.4.6-1.2.8-2.2.1,0,1.7,3.3,2.3,4.4,0,0,1.1,1.7.6,3,0,.3-.8,1.5-.6,3.4Z"/>
      <path class="cls-4" d="M23.8,69s-2.3-.3-3.6.3c-.3,0-2.6.3-3.8-1-.3-.3-3.8-3.7-4.3-4.8,0,0,.7.5,2.2.4,1.1,0,3.5.2,4.1,1.1.2,0,.3,0,.3,0,0,0,0-.3-.1-.6-.1-.3-.7-2.3-.1-3.7,0-.6,0-1.3-.2-2.2.1,0,1.3,1.6,2.1,2.4.7.8,3,2.7,2.7,3.9,0,.5,0,1.3.2,2.5.3.6.5,1.5.6,1.7Z"/>
      <path class="cls-4" d="M32,72.7s-3.3,0-5.1,1.5c-.3,0-1.4.5-3-.7-.5-.2-4.6-2.8-5.1-3.2,0-.2,1.8.2,3-.2.8-.2,2.9-.3,4,.3,0,0,.3-.2,0-.4-.2-.2-1.6-.8-1.8-3,0-1-.3-2.6-.3-2.8,0,0,2.3,1.8,4.1,2.6.4.3,2.4,1.1,2.5,3,0,.3,0,.9,1.7,2.9Z"/>
      <path class="cls-4" d="M30.3,67.9s1.4,2,1.8,3.2c.2.4.8,1.4,1.9,2.2v.2s-2.1-.1-3.3.5c-.4.2-2.2,1-3.6,1,0,.2,2.4,1.5,6,2.1.7.2,1.7.6,3.2-.3.6-.3,2-2.1,3.8-2.5,0,0-1.9-1.7-2.3-2.8-.2-.3-.9-1.8-3-2,0,0-3.3-.7-4.1-1.5-.2,0-.2,0-.3,0Z"/>
      <path class="cls-4" d="M36.4,77.7s6.8.6,8,.2c.5-.2,1.5-.7,2.5-2.7.3-.3,1-1.4,1.6-1.7,0-.2-.4-.2-1.3-.8-.6-.4-2.3-1.8-2.8-2.2,0,0-1.5-.6-3.3-.4-.7,0-3-.1-3.7-.3.2.3,1.4.9,2.5,2.6.6.6,1.4,1.4,2.6,1.8,0,.1,0,.2,0,.2s-1.8,0-3.3,1.3c-.3.2-1.8,1.7-2.6,2Z"/>
      <path class="cls-4" d="M44.9,69.9s1.8,0,2.9-.3c.4,0,2.3-.7,3.3-.9.5,0,1.3-.2,3.9,1.6.3,0,1.3.2,1.3.2,0,0,0,0,0,.2s-1.1,1.2-1.1,2.4c0,.3-.2,2.4-1.8,3-.6.2-3.3,1.3-7.1,1.7,0,0,0-.2.7-.9s1.7-2.5,2.3-2.9c.7-.4,1.9-.8,2-.9s0-.3,0-.3-1.6.4-3.3-.8c-.4-.2-1.9-1.6-2.3-1.7-.4,0-.7-.3-.8-.4Z"/>
      <path class="cls-4" d="M63.5,65.5s-1.3.2-3-.3c-.6-.1-2-.7-3.7.4-.6.3-3.3,2.1-4.6,2.3,0,.2.3.3.4.3.1,0,1.7.3,2.6.9.3.2,2,.6,2.6.5,0,.2-1.4,1.6-1.3,2.7,0,.3-.7,2.2-1.4,2.9.3,0,4.3-1.6,6.1-3,1-.7,1.5-.8,1.7-2.8,0-1.8,0-2.5.2-2.9.2-.4.4-.9.4-.9,0,0,0,0,0-.1Z"/>
      <path class="cls-4" d="M69,58.6s-1.4.7-2.6.9c-.5,0-2.2-.2-2.8.4-.2.2-3.7,3.8-4.7,4.2.1,0,1.8-.1,2.3.2.3,0,.6.5,3.5,0,0,.3-.4,1.2-.6,1.8,0,.3-.3.3-.4,4.1.1,0,4.3-3.5,4.8-4.5.3-.6.7-.8.7-2.4,0-.5-.5-2.2-.4-3.3.2-.7.3-1.5.3-1.6Z"/>
      <path class="cls-4" d="M64.3,58.8c.9-1.1,1.8-2.3,2.7-4.2.4-1,.9-1.6,2.7-2.5.8-.3,2.6-.8,3.1-1.5.2.2.4,2.1,1.3,2.9.3.5,1.3,1.9.3,3.6-.2.5-2.8,5.6-4.3,7.1,0-.2-.6-3.5-.2-5.2.1-.6.3-1.4.7-2-.1,0-1.3,1.1-2.9,1.2-.4,0-3,.7-3.3.6Z"/>
      <path class="cls-4" d="M73.5,48s-.7,1.8-2.7,2.5c-.3.1-1.9.7-2.3,1.3,0-.3.9-2.1,1.1-4.2.2-1,.5-1.8,1.5-2.9.9-.7,2.2-1.3,2.9-2.5.2-.5.2-2.3.2-2.3h.4s0,2,0,2.2c0,.2.1.8.7,1.3.2.3,2.1,2.5,2,3.3,0,.6.2,4-1.9,8.2,0,0-.3-1.8-1-3.1-.3-.3-.8-1.1-.8-2.1,0-1,0-1.7-.1-1.7Z"/>
      <g>
        <path class="cls-4" d="M41.6,30.6s-3,0-3.6-2.8c-.2-.8-.3-1.9.4-3.6,1.7-2.1,2.2-2.9,2.4-3.3.3-.5.5-1.4-.3-2.4,0,0,1.3.4,2.1,2,.1.5.5,2.3-.5,3.3-.3.4-1.6,2.1-1.6,2.9-.2.9-.2,1.7.9,3.3.3.6.2.7.2.7Z"/>
        <path class="cls-4" d="M43.9,20.7c.6,3.9-1,3.9-2.1,6.3,0,.4-.7,2.4,1.8,3.7,0-.1-.5-1.6.6-2.6.7-.7,1.9-1.8,2.4-2.9.1-.8,0-3-2.7-4.5Z"/>
        <path class="cls-4" d="M47.2,26.3s0,1-.1,1.5c-.5,1.3-1.9,1.5-1.8,2.7,0,0-1.6.2-.7-1.3,1-1.1,1.5-1.1,2.6-2.9Z"/>
        <rect class="cls-4" x="36.2" y="32.4" width="12.8" height="1.4"/>
        <rect class="cls-4" x="37" y="34.5" width="11" height="1.6"/>
        <rect class="cls-4" x="36.3" y="36.9" width="12.5" height="1.2"/>
        <polygon class="cls-4" points="38 38.8 46.7 38.8 44.8 50.8 39.6 50.8 38 38.8"/>
        <polygon class="cls-2" points="39 39.9 40.7 39.9 41.2 49.3 40.5 49.3 40 40.5 39 40.5 39 39.9"/>
        <polygon class="cls-2" points="41.2 39.9 42.9 39.9 42.9 49.3 42.2 49.3 42.2 40.5 41.2 40.5 41.2 39.9"/>
        <polygon class="cls-2" points="43.6 39.9 45.2 39.9 44.4 49.3 43.7 49.3 44.4 40.5 43.6 40.5 43.6 39.9"/>
        <rect class="cls-4" x="38.8" y="51.7" width="6.7" height=".9"/>
        <rect class="cls-4" x="39.2" y="53.3" width="6" height=".4"/>
        <rect class="cls-4" x="38.8" y="54.5" width="6.8" height=".8"/>
        <path class="cls-4" d="M39.5,56h5.3c-.4.6-.5.8-.6,3.3-.3,0-3.3,0-3.8,0,0-2.3-.3-2.9-.9-3.3Z"/>
        <path class="cls-4" d="M41.6,60.1h1.6s-.4,1.4-.3,2.9c-.2,0-.9,0-.9,0,0,0,.2-1.6-.4-2.9Z"/>
        <path class="cls-4" d="M47.5,41.1s6.5,1.2,7.9,7.4c.1,1.1.7,4.9-1.8,8.5.4,0,.9,0,1.1,0,.3-.7.7-1,1.4-1,0,0,.3,0,.4-.2,0-.2.2-.6-.5-.6,0-.3.3-1.1.4-1.4,0,0,.8,0,.8,0v-.8c0,0-.4,0-.4,0,0,0,0-1,0-1.4.1,0,.9,0,.9-.2,0-.2.3-.8-.8-1,0,0-.3-.9-.1-1.1.2-.1.7,0,.7-.3s.2-.9,0-1c-.2,0-.9,0-1.2-.2,0-.3-.4-.9,0-1.1.3-.1.7-.4.7-.7-.1-.3-.7-.5-1.5-.5,0-.1-.4-.5-.2-.9.3-.2.7-.7,0-1-.2,0-.6.3-.8.2-.2,0-1-.5-.9-.8,0-.3.4-.6.4-.9s-.4-.8-.6-.7-.6.6-1.2.5c-.3-.1-.8-.5-.6-1,0-.5-.2-.9-.6-.8-.3.1-.3.5-.5.7-.3,0-.9,0-1.2-.5,0-.4,0-.9-.2-1-.3,0-1.4-.5-1.3,2.2Z"/>
        <path class="cls-4" d="M51.8,57.5c9.2-10.9-3.8-16.5-4.5-15.8,0,0,0,1.6-.2,1.8,0-.6,11.9,4.4,2.9,14.1h1.8Z"/>
        <path class="cls-4" d="M46.9,44c-.1.2-.6,3.3-.7,3.9,1.1-.3,4.8,3.4.1,5.7,1,.6,1.1,2,.8,2.6,0,0-1,.4-1.6.4,0,.4,0,.4,0,.8,7.2.3,10.8-10.7,1.4-13.3Z"/>
        <path class="cls-4" d="M46,48.6s-.4,2-.3,2.2.7,0,.7.3c0,.2.3,1,.1,1.3,1.4-.2,2.1-3.3-.5-3.7Z"/>
        <path class="cls-4" d="M37.9,46.4c-1.3-.6-3.6-2-5.5.8,1.9,1.3,4.7-.3,5.5-.8Z"/>
        <path class="cls-4" d="M36.5,48s-1.3-.3-1.8,1.6c-.2.7-.5,1.8-1,2.5.4,0,1.4,0,2.7-1.8.3-.5.4-1.9.2-2.4Z"/>
        <path class="cls-4" d="M34.5,48.5s0,2-2.5,2.3c-.6.1-2.5.3-2.8.3.6-.4,1.5-1.1,2.4-2.2.6-.6,1.3-.6,2.9-.4Z"/>
        <path class="cls-4" d="M32.7,51.3s0,1.8-3.2,2.6c.5-.6,1-1.2,1.4-2,.4-.4.9-.5,1.8-.6Z"/>
        <path class="cls-4" d="M29.9,54.3s0,.9.7,2.1c.4-.4,1-1,1-2.7-.3,0-1.4.3-1.8.6Z"/>
        <path class="cls-4" d="M34.8,52.4s.7-.3.9-.5c.1.7-.1,2.1-.3,2.5-.3,0-.1-1.2-.6-1.9Z"/>
        <path class="cls-4" d="M24.3,48.7c1.6-.7,3.3-1.9,5.4.3-.3.3-.7.9-2.5.5-.7-.3-1.3-.8-2.9-.7Z"/>
        <path class="cls-4" d="M23.4,52.6s1.2-1,2.4-1.9c.6-.3,2.3-.6,2.6,0,0,.4-.5,1.1-2.1,1.5-.5,0-1.5,0-2.8.4Z"/>
        <path class="cls-4" d="M26.5,53.1s-1.8,1.3-3.6,1.8c.1.2.5.3.8.3s1.4-.4,2-.7c.6-.3.8-.6.8-1.4Z"/>
        <path class="cls-4" d="M29.3,51.6s-1.7-.2-2.3,1.8c0,.8-.3,2.3-.4,2.8.5-.2,1.3-.7,1.9-1.3.1-.3-.3-.2-.4-.4-.1-.2,0-.7.5-.8.5-.2.8-.5.6-2Z"/>
        <rect class="cls-4" x="36.9" y="39" width=".4" height="6.7" transform="translate(-10.1 11.6) rotate(-15.7)"/>
        <rect class="cls-4" x="36" y="39" width=".4" height="6.3" transform="translate(-11.7 14) rotate(-18.9)"/>
        <rect class="cls-4" x="34.6" y="39.2" width=".4" height="5.5" transform="translate(-14.6 19) rotate(-25.4)"/>
        <rect class="cls-4" x="33.7" y="39.5" width=".4" height="5.3" transform="translate(-17 23.9) rotate(-31.5)"/>
        <rect class="cls-4" x="32.7" y="40" width=".4" height="5" transform="translate(-19 28.5) rotate(-37.1)"/>
        <rect class="cls-4" x="32" y="40.3" width=".4" height="5.1" transform="translate(-20.4 32.2) rotate(-41.6)"/>
        <rect class="cls-4" x="31.3" y="40.9" width=".4" height="4.9" transform="translate(-21.4 34.5) rotate(-44.5)"/>
        <rect class="cls-4" x="30.6" y="41.4" width=".4" height="5.1" transform="translate(-22.5 37.3) rotate(-47.9)"/>
        <rect class="cls-4" x="29.9" y="42" width=".4" height="5.1" transform="translate(-23.4 39.7) rotate(-50.8)"/>
        <rect class="cls-4" x="29.4" y="42.7" width=".4" height="5.1" transform="translate(-24.5 45.1) rotate(-56.7)"/>
        <rect class="cls-4" x="29" y="43.5" width=".4" height="5.1" transform="translate(-25.2 48.9) rotate(-60.7)"/>
        <rect class="cls-4" x="28.6" y="44.3" width=".4" height="5" transform="translate(-25.9 52.2) rotate(-64.1)"/>
        <rect class="cls-4" x="28.3" y="45" width=".4" height="4.7" transform="translate(-26.4 53.5) rotate(-65.4)"/>
        <rect class="cls-4" x="26.6" y="46.6" width=".4" height="1.8" transform="translate(-27.8 48.7) rotate(-61.8)"/>
        <path class="cls-2" d="M47.7,45s1.4-.1,1.6,1c-.1.4-1.2,1.7-1.5,1.8-.4,0-1.2-.3-1.1-.5,0-.3.6-1.8,1-2.3Z"/>
        <path class="cls-2" d="M49,49s1.3-.2,2.1-.9c0-.3,0-1.2-.7-1.4-.3.1-1.8,1-1.8,1.4,0,.3,0,.7.5.9Z"/>
        <path class="cls-2" d="M51.6,49.5s.4,1.3-.3,1.7c-.4.1-1.9.2-2.1-.1-.1-.3-.5-1,.4-1.5.8-.2,1.8-.1,1.9,0Z"/>
        <path class="cls-2" d="M49.4,51.7s2.3.5,1.6,1.4c-.1.4-.3.8-1.2.6-.5-.2-2-1-.4-2Z"/>
        <path class="cls-2" d="M48.2,53.3s2.4,1.7.7,2.3c-.7.5-2.3-1.5-.7-2.3Z"/>
        <path class="cls-4" d="M48.3,46s-.8.8-.8,1.1.5,0,.7-.4c.2-.3,0-.7,0-.7Z"/>
        <path class="cls-4" d="M49.8,50.3s1.2,0,1.2,0c0,.1.2.5,0,.5-.3,0-1.6.3-1.2-.5Z"/>
        <path class="cls-4" d="M49.2,52.4s1,.5,1,.7c0,.2-1.3.3-1-.7Z"/>
        <path class="cls-4" d="M47.9,54s.8.9.6.9c-.2,0-.8,0-.6-.9Z"/>
        <path class="cls-4" d="M50.1,47.7s-.9.5-1,.7c0,.2.9.2,1-.7Z"/>
      </g>
      <g>
        <g>
          <path class="cls-3" d="M246.1,62.9v-7.4c-.6-.2-1.1-.4-1.7-.6v-1.4h5.6v1.5c-.4.2-.8.3-1.3.5v13.6h-2.1c-2.5-3.1-5-6.3-7.7-9.5v7.6c.5.2,1,.4,1.6.6v1.3h-5.9v-1.3c.5-.2,1.1-.3,1.8-.6v-1.1c0-2.9,0-5.8,0-8.7,0-1.1-.5-1.8-1.3-2.2-.2-.1-.4-.2-.7-.3v-1.4c.9-.1,1.8,0,2.6,0,1.2-.1,1.9.3,2.6,1.2,1.9,2.6,3.9,5,5.9,7.5.2.3.3.5.7.8Z"/>
          <path class="cls-3" d="M142.5,61.1c0-1.1.2-2.2.6-3.3.9-2.5,2.7-4.1,5.4-4.5,1.5-.3,3.1-.2,4.5.4,2.5,1.2,3.8,3.3,4.2,5.9.3,1.6.2,3.1-.3,4.6-1.3,4-5.1,5.4-8.3,4.9s-5-2.7-5.8-5.7c-.2-.8-.2-1.6-.3-2.3ZM153.5,62.2c0-.3,0-.6,0-.9,0-1.3-.3-2.5-.8-3.6-.7-1.4-1.8-2.3-3.4-2.3-1.3,0-1.8.4-2.2,1.7-.8,2.6-.7,5.1.2,7.7.1.3.3.7.5.9.8,1.3,1.9,1.8,3.4,1.7.8,0,1.2-.3,1.6-1,.6-1.3.8-2.7.8-4.2Z"/>
          <path class="cls-3" d="M219.1,61.1c0-1.3.3-2.6.8-3.8,1.1-2.5,3-3.8,5.7-4.1,2.2-.3,4.2.2,5.8,1.7,1.2,1.1,1.9,2.5,2.3,4.1.4,1.8.3,3.6-.3,5.3-1.3,3.9-5,5.3-8.2,4.8-3.2-.5-5-2.7-5.8-5.7-.2-.8-.3-1.6-.3-2.4ZM230,62.2c0-.3,0-.6,0-.9,0-1.3-.3-2.5-.8-3.6-.7-1.5-2.1-2.3-3.6-2.3-1.1,0-1.8.5-2.1,1.6-.8,2.6-.7,5.1.2,7.7.1.3.3.7.5.9.8,1.3,1.9,1.8,3.4,1.7.8,0,1.2-.3,1.6-1,.7-1.3.8-2.7.8-4.1Z"/>
          <path class="cls-3" d="M104.4,67.1c.6.2,1.1.4,1.7.6v1.3h-6v-1.3c0,0,0-.1.2-.1,1.9-.6,1.4-.3,2.1-2.1,1.4-3.8,2.7-7.7,4.1-11.6,0-.2.2-.4.3-.6h4c.1.3.3.6.4.9,1.3,3.8,2.7,7.7,4,11.5.3,1,.8,1.7,1.9,1.8,0,0,.2,0,.3.1v1.3h-7.3v-1.3c.5-.2,1.1-.3,1.7-.6-.3-.9-.6-1.8-.9-2.8h-5.3c-.3.9-.6,1.8-1,2.8ZM110,62.3c-.7-2.1-1.3-4-1.9-5.9,0,0-.1,0-.2,0-.6,1.9-1.3,3.9-1.9,5.8,1.3,0,2.6,0,4,0Z"/>
          <path class="cls-3" d="M197.3,67.8v1.2c-.8.2-6.2.3-7.4,0,0-.1,0-.3,0-.4v-.9c.6-.2,1.1-.4,1.8-.6-.3-.9-.6-1.8-.9-2.8h-5.3c-.3.9-.6,1.8-.9,2.8.6.2,1.1.4,1.7.6v1.3h-6v-1.3s0-.1.1-.1c1.9-.6,1.5-.2,2.1-2.1,1.4-3.8,2.7-7.7,4-11.5,0-.2.2-.4.3-.6h4c.1.3.3.6.4.9,1.3,3.8,2.7,7.7,4,11.5.3,1,.8,1.7,1.8,1.8.2,0,.2,0,.4.2ZM186.1,62.4h2c.6,0,1.3,0,2,0-.6-2.1-1.2-4-2.1-5.8-.7,1.9-1.3,3.8-2,5.9Z"/>
          <path class="cls-3" d="M128.3,54.2v4.2h-2.3c-.2-.7-.4-1.3-.6-2-.1-.5-.4-.8-.9-.9-.4,0-.8-.2-1.2-.2-.8-.1-1.3.2-1.6.8-.4.7-.4,1.4.2,2,.3.4.8.7,1.3.9.8.4,1.6.7,2.4,1,.5.2,1,.5,1.5.8,2.4,1.4,2.4,4.6,1,6.3-1.1,1.3-2.6,1.9-4.3,2.1-2,.2-3.8-.3-5.5-1.3v-3.6h2.2c.2.7.3,1.3.5,2.1.9.7,2.1.9,3.2.9.3,0,.6-.2.8-.4.9-.9.8-2.5-.3-3.2-.5-.4-1.1-.6-1.7-.9-.8-.4-1.7-.7-2.5-1-3.4-1.5-3.2-5.6-.6-7.4,2-1.3,4.2-1.4,6.4-.8.7.1,1.3.4,1.9.7Z"/>
          <path class="cls-3" d="M140.6,54.2v4.2h-2.3c-.2-.7-.4-1.3-.6-2-.1-.4-.3-.7-.8-.8-.4,0-.8-.2-1.2-.3-.8-.2-1.3.2-1.7.9s-.3,1.4.2,2c.3.3.8.6,1.2.8.8.4,1.7.7,2.5,1.1.5.2,1,.5,1.5.8,2.3,1.3,2.4,4.3,1,6.1-1,1.3-2.3,1.9-3.8,2.1-2.2.4-4.2-.1-6.1-1.3v-3.6h2.2c.2.7.3,1.4.5,2.1,1,.7,2.1.9,3.2.9.6,0,1.1-.4,1.3-1.1.3-.9,0-2-.8-2.5-.5-.3-1-.6-1.6-.8-.8-.4-1.7-.7-2.5-1-3.4-1.5-3.3-5.7-.6-7.5,1.7-1.2,3.6-1.3,5.5-1,1,.2,1.9.6,2.8.9Z"/>
          <path class="cls-3" d="M201.1,67.2v-11.6h-2c-.3.9-.5,1.8-.8,2.8h-2.1v-4.9h13.6c0,.8,0,1.7,0,2.5v2.4h-2.2c-.2-.9-.4-1.8-.7-2.8h-2.1c-.2.7-.3,9.3,0,11.6.5.2,1.1.4,1.7.6v1.3h-7.1v-1.3c.6-.2,1.1-.3,1.7-.5Z"/>
          <path class="cls-3" d="M169.9,64.9c.4.3.8.5,1.1.8-1.2,2.2-2.9,3.5-5.3,3.6-2.5.2-4.6-.8-6.1-2.9-1.3-2-1.5-4.2-1.2-6.5.3-1.7.9-3.2,2.1-4.5,1.3-1.3,2.8-2.1,4.6-2.2,1.8,0,3.5.1,5.1.9v4.2h-2.3c-.2-.8-.5-1.7-.7-2.5-1-.5-2-.6-3-.4-.3,0-.6.3-.7.5-.7.9-1,1.9-1.1,3-.2,1.5-.2,3.1.2,4.6.1.5.3,1,.6,1.4,1.1,2.4,4.4,2.7,6,.8.2-.2.4-.4.6-.8Z"/>
          <path class="cls-3" d="M212.5,55.4c-.5-.2-1.1-.4-1.6-.6v-1.4h7.1v1.4c-.3,0-.5.2-.8.3-.3,0-.5.2-.8.3v11.8c.5.2,1.1.4,1.7.6v1.2h-7.1v-1.3c.5-.2,1-.3,1.6-.5v-11.9Z"/>
          <path class="cls-3" d="M173.7,55.4c-.5-.2-1-.4-1.6-.6v-1.4h7.1v1.4c-.5.2-1,.3-1.7.6v11.8c.5.2,1,.4,1.7.6v1.2h-7.1v-1.2c.5-.2,1.1-.3,1.7-.5,0-4,0-7.9,0-11.9Z"/>
        </g>
        <g>
          <path class="cls-3" d="M133.6,13.9c-1.5,3.5-3,7-4.5,10.5h-1.6c-1.5-3.4-3-6.9-4.5-10.4-.2.6-.3,5.7-.1,8.5.5.2,1.1.4,1.7.6v1.3h-6v-1.3c.6-.2,1.1-.4,1.7-.6v-11.8c-.6-.2-1.2-.3-1.8-.5v-1.4h6c1.5,3.5,3,7,4.5,10.8,1.5-3.7,3-7.2,4.4-10.8h5.6v1.5c-.5.1-1.1.3-1.7.4-.2.7-.2,9.7,0,11.8.2,0,.5.2.8.3s.5.2.9.3v1.4h-6.8v-1.3c.5-.2,1-.3,1.6-.5v-8.6s0,0,0,0Z"/>
          <path class="cls-3" d="M219.7,10.8c-.5-.2-1.1-.4-1.7-.6v-1.4h6v1.4c-.5.2-1.1.4-1.7.6v13.6h-2.1c-2.5-3.1-5-6.2-7.7-9.5v7.6c.5.2,1.1.4,1.7.6v1.3h-6c0-.3,0-.5,0-.7s0-.4,0-.6c.6-.2,1.1-.4,1.8-.6v-1c0-3,0-5.9,0-8.9,0-1.1-.6-1.7-1.4-2.1-.2,0-.4-.2-.7-.3v-1.5c.7,0,1.4,0,2.1,0h2.1c2.5,3.2,5,6.3,7.6,9.6,0-2.7,0-5.1,0-7.6Z"/>
          <path class="cls-3" d="M155.5,10.8c-.6-.2-1.1-.4-1.7-.6v-1.4c.2,0,.5,0,.7,0h6.3c1.1,0,2.1.2,3.1.5,3.4,1.1,3.4,5,1.6,6.8-.4.4-.9.8-1.3,1.1.8,1.6,1.6,3.2,2.4,4.8.1.2.4.4.6.5.5.2,1.1.3,1.7.5v1.3h-5.3c-1-2.1-2-4.2-3-6.3h-1.3v4.4c.5.2,1.1.3,1.7.6v1.3h-7.1c0-.2,0-.4,0-.5v-.8c.6-.2,1.2-.4,1.7-.6,0-3.9,0-7.8,0-11.7ZM159.2,16.3c.7,0,1.3-.1,2-.2.4,0,.7-.2.9-.4.8-.9,1-1.9.8-3.1-.2-1-.8-1.6-1.8-1.8-.6-.1-1.2-.1-1.8,0v5.5Z"/>
          <path class="cls-3" d="M149.3,22.3c.4-.9.8-1.8,1.2-2.8h2.3c0,1.6-.2,3.2-.3,4.8h-12.4v-1.3c.6-.2,1.1-.4,1.7-.6v-11.7c-.5-.2-1.1-.4-1.7-.6v-1.3c.6-.2,11.2-.2,12.2,0,0,1.6.1,3.2.2,4.8h-2.3c-.3-.9-.6-1.8-.9-2.8h-3.7v4.4h4v2.2h-4v4.9c1.3,0,2.5,0,3.9,0Z"/>
          <path class="cls-3" d="M118,24.4h-7.3c-.2-.4,0-.9,0-1.3.6-.2,1.1-.4,1.8-.6-.3-.9-.6-1.8-.9-2.7h-5.3c-.3.9-.6,1.8-.9,2.7.6.2,1.1.4,1.7.6v1.3c-.6.2-5,.2-6,0v-1.3c.3,0,.6-.2.9-.3.6-.1.9-.4,1.1-1,1-2.9,2-5.7,3-8.6.5-1.5,1-2.9,1.6-4.4h4.1c1.6,4.5,3.2,9.1,4.8,13.7.5.2,1.1.3,1.7.5,0,.4,0,.8,0,1.3ZM106.8,17.6h4c-.6-2-1.3-3.9-1.9-5.8h-.2c-.6,1.9-1.3,3.9-1.9,5.8Z"/>
          <path class="cls-3" d="M195.7,19.7c-.3.9-.6,1.8-.9,2.7.6.2,1.1.4,1.7.6v1.3h-6v-1.3c.3,0,.6-.2,1-.3.5-.1.8-.4,1-.9,1.4-4,2.8-8.1,4.2-12.1.1-.3.2-.6.3-1h4.1c1.6,4.5,3.2,9.1,4.8,13.7.5.2,1.1.3,1.7.6v1.3h-7.4v-1.3c.6-.2,1.1-.4,1.7-.6-.3-.9-.6-1.8-.9-2.7-1.7,0-3.5,0-5.3,0ZM198.5,11.8h-.2c-.6,1.9-1.3,3.8-1.9,5.8h4c-.6-2-1.2-3.9-1.8-5.8Z"/>
          <path class="cls-3" d="M189.3,9.4v4.3h-2.2c-.2-.6-.4-1.3-.5-1.9,0-.5-.3-.7-.8-.8-.8-.2-1.5-.3-2.3-.2-.4,0-.6.2-.8.5-.4.7-.8,1.4-.9,2.2-.4,2-.4,3.9.2,5.9.1.4.3.8.5,1.2,1.3,2.2,4.1,2.2,5.6.8.3-.3.6-.7,1-1,.4.3.7.5,1.1.8-1.1,2.1-2.7,3.4-5.1,3.6-4,.3-7-2.3-7.5-6.2-.3-2.1,0-4.1,1-6,1.3-2.4,3.3-3.7,6.1-3.8,1.6,0,3.1.2,4.6.8Z"/>
          <path class="cls-3" d="M176.5,8.8v1.4c-.6.2-1.1.4-1.7.6v11.8c.5.2,1,.3,1.6.5v1.2h-7.1v-1.2c.6-.2,1.1-.3,1.7-.5v-11.8c-.6-.2-1.1-.4-1.7-.6v-1.4c2.4,0,4.8,0,7.2,0Z"/>
        </g>
        <g>
          <path class="cls-3" d="M194.8,44.5c.5.2,1,.3,1.6.5v1.3h-6.8v-1.3c.5-.2,1-.3,1.6-.5v-8.5s0,0,0,0c-1.5,3.5-3,7-4.5,10.5h-1.6c-1.5-3.5-3.1-7.1-4.6-10.6,0,0,0,0,0,0v8.6c.6.2,1.1.4,1.7.6v1.3c-.6.2-4.6.2-6,0v-1.3c.5-.2,1.1-.4,1.7-.6v-11.8c-.6-.2-1.2-.3-1.8-.5v-1.4c.6-.2,4.5-.2,6,0,1.5,3.5,3,7.1,4.5,10.8,1.5-3.7,3-7.2,4.4-10.8h5.7v1.5c-.6.2-1.2.3-1.8.4,0,3.9,0,7.8,0,11.8Z"/>
          <path class="cls-3" d="M148.3,44.6c.6.2,1.1.3,1.7.5v1.3c-.6.2-4.5.2-6,0v-1.3c.6-.2,1.1-.4,1.7-.6v-.9c0-3,0-5.9,0-8.9,0-1.1-.5-1.7-1.4-2.2-.2,0-.4-.2-.7-.3v-1.4c.3,0,.4,0,.7,0,.9,0,1.8,0,2.8,0,.6,0,.9.2,1.3.6,1.8,2.3,3.5,4.5,5.3,6.7.4.6.9,1.1,1.3,1.7.1.2.2.4.3.5l.2-.2v-7.3c-.5-.2-1.1-.3-1.7-.6v-1.4h6v1.4c-.6.2-1.1.3-1.7.5v13.6h-2.1c-2.5-3.1-5-6.3-7.6-9.4,0,.7-.2,5.9,0,7.6Z"/>
          <path class="cls-3" d="M128.5,38.6c0-2,.5-3.8,1.8-5.4,1.2-1.5,2.8-2.3,4.6-2.5.9,0,1.8-.1,2.7,0,2.7.5,4.3,2.3,5.2,4.8.8,2.2.8,4.5,0,6.7-1.1,2.8-3.2,4.2-6.2,4.5-1.6.2-3.2-.1-4.5-1-1.8-1.1-2.7-2.8-3.2-4.8-.2-.7-.2-1.5-.3-2.3ZM139.4,39.5c0-.8,0-1.6-.2-2.3-.2-1-.5-2-1.1-2.9-.8-1.1-1.9-1.6-3.3-1.5-.9,0-1.7.4-1.9,1.4,0,.3-.2.7-.3,1-.4,1.7-.3,3.4,0,5.1.2.9.4,1.8.9,2.5.7,1.2,1.7,1.8,3.1,1.9,1,0,1.7-.4,2.1-1.3.5-1.3.7-2.6.8-3.9Z"/>
          <path class="cls-3" d="M168,30.6c3.1,0,5.6,1.7,6.7,4.8.8,2.3.8,4.5,0,6.8-1,2.6-3.4,4.4-6.2,4.5-1.6,0-3.1-.2-4.4-1-1.6-1.1-2.6-2.6-3.1-4.4-.5-2.1-.5-4.2.3-6.2,1.1-2.8,3.2-4.2,6.2-4.4.2,0,.4,0,.6,0ZM171.4,39.2c0-.4,0-1.2-.2-2-.2-1-.4-2-1.1-2.9-.8-1.1-1.9-1.6-3.2-1.5-1,0-1.7.4-2,1.5,0,.3-.2.7-.3,1-.4,1.7-.3,3.4,0,5.1.2.9.4,1.8.9,2.5.7,1.1,1.6,1.8,3,1.8s1.6-.1,2.3-1.5c.6-1.2.7-2.4.7-4Z"/>
          <path class="cls-3" d="M106.6,44.5h3.8c.4-.9.8-1.9,1.3-2.9h2.2c0,1.6-.2,3.2-.2,4.8h-12.5v-1.3c.5-.2,1.1-.4,1.7-.6v-11.6c-.5-.4-1.1-.4-1.7-.6v-1.5h12.3c.2,1.6,0,3.2.2,4.9h-2.3c-.3-.9-.6-1.8-1-2.8h-3.7v4.3h4v2.2c-1.3,0-2.6,0-4,0,0,1.7,0,3.3,0,5Z"/>
          <path class="cls-3" d="M126.8,31.5v4.3c-.7,0-1.5,0-2.3,0-.2-.7-.4-1.4-.5-2.1,0-.4-.3-.6-.7-.7-.9-.3-1.9-.3-2.8-.2-.6.6-1,1.4-1.3,2.2-.5,2-.5,4,0,6.1.1.5.3,1,.6,1.4,1.3,2.3,4.3,2.2,5.7.8.3-.3.5-.6.9-1,.3.2.7.5,1.2.8-1.1,2-2.7,3.4-5,3.6-4.3.4-7.2-2.5-7.6-6.4-.2-2.1,0-4,1-5.8,1.3-2.3,3.3-3.7,6-3.8,1.7,0,3.3.3,4.8,1Z"/>
          <path class="cls-3" d="M217.5,31.5v4.2h-2.3c-.2-.7-.4-1.3-.5-2,0-.5-.3-.6-.7-.8-.8-.3-1.6-.3-2.4-.2-.3,0-.5.2-.8.4-.8,1-1.1,2.1-1.2,3.3-.2,1.5-.2,3.1.3,4.6.2.5.3,1,.6,1.4,1.3,2.3,4.3,2.3,5.7.8.3-.3.5-.6.8-.9.3.3.7.5,1.1.8,0,.2,0,.3-.2.4-1.5,2.4-3.6,3.6-6.3,3.3-2.7-.3-4.6-1.8-5.5-4.3-1-2.7-.8-5.4.5-8,1.3-2.3,3.2-3.6,5.9-3.7,1.5,0,3,.1,4.4.7.2,0,.3,0,.5.1Z"/>
          <path class="cls-3" d="M204.7,30.8v1.4c-.6.2-1.1.3-1.7.5v11.9c.5.2,1.1.4,1.7.6v1.2h-7.1v-1.2c.5-.2,1.1-.3,1.6-.5v-11.9c-.5-.2-1.1-.4-1.7-.6v-1.4h7.2Z"/>
        </g>
      </g>
    </g>
  </g>
</svg>