<svg width="130" height="44" viewBox="0 0 130 44" fill="none" xmlns="http://www.w3.org/2000/svg">
<g clip-path="url(#clip0_190_6591)">
<path fill-rule="evenodd" clip-rule="evenodd" d="M36.909 40.6259C44.2572 40.6259 50.1691 34.674 50.1691 27.3575H50.1693V1.60091H53.3048V27.3573C53.3048 36.3948 45.9696 43.7479 36.8925 43.7479C33.044 43.7479 29.5575 42.4163 26.7514 40.2048C23.9452 42.4163 20.376 43.7479 16.5277 43.7479C7.45066 43.7479 0 36.3948 0 27.3573V1.60091H3.13555V27.3575C3.13555 34.6738 9.14641 40.6259 16.4946 40.6259C19.4545 40.6259 22.2156 39.6484 24.4297 38.0168C21.9542 35.1478 20.3811 31.4276 20.3811 27.3575L20.3866 6.24408C20.3866 2.80106 23.1998 0 26.6577 0C30.1156 0 32.9288 2.80125 32.9288 6.24408L32.9233 27.3575C32.9233 31.4274 31.4494 35.1478 28.9739 38.0168C31.188 39.6484 33.9492 40.6259 36.909 40.6259ZM23.5167 27.3573C23.5167 30.6054 24.699 33.5809 26.6522 35.8898C28.6055 33.5809 29.7878 30.6054 29.7878 27.3575L29.7933 6.24389C29.7933 4.52208 28.3866 3.12194 26.6577 3.12194C24.9288 3.12194 23.5221 4.52208 23.5221 6.24389L23.5167 27.3573ZM62.7164 1.51635H65.8519V42.9209H62.7164V1.51635ZM78.3939 8.65141C81.6465 3.91176 87.1159 0.794499 93.3033 0.794499V3.9223C85.0833 3.9223 78.3957 10.5802 78.3957 18.7639H78.3939V42.9209H75.2584V1.51635H78.3939V8.65141ZM129.578 8.22858C129.239 7.83718 128.883 7.45497 128.51 7.08331C120.105 -1.29311 106.429 -1.29311 98.0239 7.08331C89.6188 15.4597 89.6188 29.0891 98.0239 37.4655C106.428 45.8407 120.101 45.8419 128.506 37.469L126.289 35.2593C119.48 42.0417 108.626 42.3922 101.397 36.3132L114.372 23.3828L129.578 8.22858ZM100.241 9.29299C93.4321 16.0788 93.0791 26.8983 99.1801 34.1037L125.137 8.23561C117.907 2.15538 107.05 2.50713 100.241 9.29299Z" fill="white"/>
<path d="M50.1691 27.3575V27.1075H49.9191V27.3575H50.1691ZM50.1693 27.3575V27.6075H50.4193V27.3575H50.1693ZM50.1693 1.60091V1.35091H49.9193V1.60091H50.1693ZM53.3048 1.60091H53.5548V1.35091H53.3048V1.60091ZM26.7514 40.2048L26.9061 40.0085L26.7514 39.8865L26.5966 40.0085L26.7514 40.2048ZM0 1.60091V1.35091H-0.25V1.60091H0ZM3.13555 1.60091H3.38555V1.35091H3.13555V1.60091ZM24.4297 38.0168L24.578 38.2181L24.7953 38.0579L24.619 37.8535L24.4297 38.0168ZM20.3811 27.3575L20.1311 27.3574V27.3575H20.3811ZM20.3866 6.24408L20.6366 6.24415V6.24408H20.3866ZM32.9288 6.24408L33.1788 6.24415V6.24408H32.9288ZM32.9233 27.3575L32.6733 27.3574V27.3575H32.9233ZM28.9739 38.0168L28.7846 37.8535L28.6082 38.0579L28.8256 38.2181L28.9739 38.0168ZM26.6522 35.8898L26.4613 36.0512L26.6522 36.2768L26.8431 36.0512L26.6522 35.8898ZM23.5167 27.3573L23.2667 27.3572V27.3573H23.5167ZM29.7878 27.3575L29.5378 27.3574V27.3575H29.7878ZM29.7933 6.24389L30.0433 6.24395V6.24389H29.7933ZM23.5221 6.24389L23.7721 6.24395V6.24389H23.5221ZM65.8519 1.51635H66.1019V1.26635H65.8519V1.51635ZM62.7164 1.51635V1.26635H62.4664V1.51635H62.7164ZM65.8519 42.9209V43.1709H66.1019V42.9209H65.8519ZM62.7164 42.9209H62.4664V43.1709H62.7164V42.9209ZM93.3033 0.794499H93.5533V0.544499H93.3033V0.794499ZM78.3939 8.65141H78.1439V9.45754L78.6001 8.79287L78.3939 8.65141ZM93.3033 3.9223V4.1723H93.5533V3.9223H93.3033ZM78.3957 18.7639V19.0139H78.6457V18.7639H78.3957ZM78.3939 18.7639V18.5139H78.1439V18.7639H78.3939ZM78.3939 42.9209V43.1709H78.6439V42.9209H78.3939ZM75.2584 42.9209H75.0084V43.1709H75.2584V42.9209ZM75.2584 1.51635V1.26635H75.0084V1.51635H75.2584ZM78.3939 1.51635H78.6439V1.26635H78.3939V1.51635ZM128.51 7.08331L128.687 6.90623L128.687 6.90623L128.51 7.08331ZM129.578 8.22858L129.755 8.40565L129.92 8.24096L129.767 8.06473L129.578 8.22858ZM98.0239 7.08331L98.2004 7.26039L98.2004 7.26039L98.0239 7.08331ZM98.0239 37.4655L98.2004 37.2884L98.2004 37.2884L98.0239 37.4655ZM128.506 37.469L128.683 37.6461L128.861 37.469L128.683 37.2919L128.506 37.469ZM126.289 35.2593L126.466 35.0822L126.289 34.9064L126.113 35.0822L126.289 35.2593ZM101.397 36.3132L101.221 36.1361L101.028 36.3288L101.236 36.5045L101.397 36.3132ZM114.372 23.3828L114.195 23.2058L114.195 23.2058L114.372 23.3828ZM99.1801 34.1037L98.9893 34.2653L99.1645 34.4722L99.3566 34.2808L99.1801 34.1037ZM125.137 8.23561L125.313 8.41269L125.506 8.21998L125.298 8.04427L125.137 8.23561ZM49.9191 27.3575C49.9191 34.5365 44.1185 40.3759 36.909 40.3759V40.8759C44.3958 40.8759 50.4191 34.8115 50.4191 27.3575H49.9191ZM50.1693 27.1075H50.1691V27.6075H50.1693V27.1075ZM49.9193 1.60091V27.3575H50.4193V1.60091H49.9193ZM53.3048 1.35091H50.1693V1.85091H53.3048V1.35091ZM53.5548 27.3573V1.60091H53.0548V27.3573H53.5548ZM36.8925 43.9979C46.1076 43.9979 53.5548 36.5329 53.5548 27.3573H53.0548C53.0548 36.2567 45.8315 43.4979 36.8925 43.4979V43.9979ZM26.5966 40.4012C29.4441 42.6452 32.9845 43.9979 36.8925 43.9979V43.4979C33.1036 43.4979 29.6709 42.1873 26.9061 40.0085L26.5966 40.4012ZM16.5277 43.9979C20.4342 43.9979 24.0576 42.646 26.9061 40.4012L26.5966 40.0085C23.8329 42.1865 20.3178 43.4979 16.5277 43.4979V43.9979ZM-0.25 27.3573C-0.25 36.5352 7.31492 43.9979 16.5277 43.9979V43.4979C7.58641 43.4979 0.25 36.2544 0.25 27.3573H-0.25ZM-0.25 1.60091V27.3573H0.25V1.60091H-0.25ZM3.13555 1.35091H0V1.85091H3.13555V1.35091ZM3.38555 27.3575V1.60091H2.88555V27.3575H3.38555ZM16.4946 40.3759C9.28265 40.3759 3.38555 34.5339 3.38555 27.3575H2.88555C2.88555 34.8137 9.01017 40.8759 16.4946 40.8759V40.3759ZM24.2814 37.8156C22.1085 39.4167 19.3991 40.3759 16.4946 40.3759V40.8759C19.51 40.8759 22.3226 39.8801 24.578 38.2181L24.2814 37.8156ZM20.1311 27.3575C20.1311 31.4934 21.7297 35.2703 24.2404 38.1801L24.619 37.8535C22.1786 35.0253 20.6311 31.3619 20.6311 27.3575H20.1311ZM20.1366 6.24402L20.1311 27.3574L20.6311 27.3576L20.6366 6.24415L20.1366 6.24402ZM26.6577 -0.25C23.0627 -0.25 20.1366 2.66197 20.1366 6.24408H20.6366C20.6366 2.94015 23.3368 0.25 26.6577 0.25V-0.25ZM33.1788 6.24408C33.1788 2.66217 30.2527 -0.25 26.6577 -0.25V0.25C29.9786 0.25 32.6788 2.94034 32.6788 6.24408H33.1788ZM33.1733 27.3576L33.1788 6.24415L32.6788 6.24402L32.6733 27.3574L33.1733 27.3576ZM29.1632 38.1801C31.6768 35.267 33.1733 31.4891 33.1733 27.3575H32.6733C32.6733 31.3658 31.2221 35.0286 28.7846 37.8535L29.1632 38.1801ZM36.909 40.3759C34.0047 40.3759 31.295 39.4167 29.1222 37.8156L28.8256 38.2181C31.0809 39.8801 33.8938 40.8759 36.909 40.8759V40.3759ZM26.8431 35.7283C24.9262 33.4624 23.7667 30.5435 23.7667 27.3573H23.2667C23.2667 30.6673 24.4717 33.6994 26.4613 36.0512L26.8431 35.7283ZM29.5378 27.3575C29.5378 30.5435 28.3782 33.4624 26.4613 35.7283L26.8431 36.0512C28.8327 33.6994 30.0378 30.6673 30.0378 27.3575H29.5378ZM29.5433 6.24382L29.5378 27.3574L30.0378 27.3576L30.0433 6.24395L29.5433 6.24382ZM26.6577 3.37194C28.2495 3.37194 29.5433 4.6612 29.5433 6.24389H30.0433C30.0433 4.38297 28.5236 2.87194 26.6577 2.87194V3.37194ZM23.7721 6.24389C23.7721 4.6612 25.0659 3.37194 26.6577 3.37194V2.87194C24.7918 2.87194 23.2721 4.38297 23.2721 6.24389H23.7721ZM23.7667 27.3574L23.7721 6.24395L23.2721 6.24382L23.2667 27.3572L23.7667 27.3574ZM65.8519 1.26635H62.7164V1.76635H65.8519V1.26635ZM66.1019 42.9209V1.51635H65.6019V42.9209H66.1019ZM62.7164 43.1709H65.8519V42.6709H62.7164V43.1709ZM62.4664 1.51635V42.9209H62.9664V1.51635H62.4664ZM93.3033 0.544499C87.03 0.544499 81.485 3.70527 78.1878 8.50995L78.6001 8.79287C81.808 4.11824 87.2018 1.0445 93.3033 1.0445V0.544499ZM93.5533 3.9223V0.794499H93.0533V3.9223H93.5533ZM78.6457 18.7639C78.6457 10.7194 85.2203 4.1723 93.3033 4.1723V3.6723C84.9462 3.6723 78.1457 10.4411 78.1457 18.7639H78.6457ZM78.3939 19.0139H78.3957V18.5139H78.3939V19.0139ZM78.6439 42.9209V18.7639H78.1439V42.9209H78.6439ZM75.2584 43.1709H78.3939V42.6709H75.2584V43.1709ZM75.0084 1.51635V42.9209H75.5084V1.51635H75.0084ZM78.3939 1.26635H75.2584V1.76635H78.3939V1.26635ZM78.6439 8.65141V1.51635H78.1439V8.65141H78.6439ZM128.334 7.26038C128.702 7.62763 129.054 8.00541 129.389 8.39242L129.767 8.06473C129.424 7.66896 129.064 7.28232 128.687 6.90623L128.334 7.26038ZM98.2004 7.26039C106.508 -1.0188 120.026 -1.0188 128.334 7.26039L128.687 6.90623C120.184 -1.56742 106.35 -1.56742 97.8474 6.90623L98.2004 7.26039ZM98.2004 37.2884C89.8933 29.0097 89.8933 15.5391 98.2004 7.26039L97.8474 6.90623C89.3443 15.3804 89.3443 29.1684 97.8474 37.6426L98.2004 37.2884ZM128.33 37.2919C120.022 45.5676 106.507 45.5664 98.2004 37.2884L97.8474 37.6426C106.349 46.115 120.18 46.1162 128.683 37.6461L128.33 37.2919ZM126.113 35.4364L128.33 37.6461L128.683 37.2919L126.466 35.0822L126.113 35.4364ZM101.236 36.5045C108.563 42.6661 119.564 42.3111 126.466 35.4365L126.113 35.0822C119.396 41.7722 108.689 42.1184 101.558 36.1219L101.236 36.5045ZM114.195 23.2058L101.221 36.1361L101.574 36.4903L114.548 23.5599L114.195 23.2058ZM129.402 8.0515L114.195 23.2058L114.548 23.5599L129.755 8.40565L129.402 8.0515ZM99.3709 33.9422C93.3533 26.8353 93.7016 16.1632 100.418 9.47006L100.065 9.11591C93.1625 15.9945 92.8049 26.9614 98.9893 34.2653L99.3709 33.9422ZM124.96 8.05853L99.0036 33.9266L99.3566 34.2808L125.313 8.41269L124.96 8.05853ZM100.418 9.47006C107.134 2.77657 117.844 2.42928 124.976 8.42694L125.298 8.04427C117.969 1.88148 106.966 2.23768 100.065 9.11591L100.418 9.47006Z" fill="white"/>
</g>
<defs>
<clipPath id="clip0_190_6591">
<rect width="129.578" height="43.7479" fill="white"/>
</clipPath>
</defs>
</svg>
